<svg width="140" height="153" viewBox="0 0 140 153" fill="none" xmlns="http://www.w3.org/2000/svg">
<path d="M69.9999 153C65.1946 153 60.3175 151.921 56.5163 149.691L17.0697 126.885C1.0041 116.022 0 114.368 0 97.3179V55.7361C0 38.6861 0.932378 37.0315 16.7111 26.3123L56.4445 3.29129C63.9753 -1.0971 75.8093 -1.0971 83.3401 3.29129L122.93 26.1685C138.996 37.0315 140 38.6861 140 55.7361V97.2459C140 114.296 139.068 115.951 123.289 126.67L83.5552 149.691C79.6823 151.921 74.8052 153 69.9999 153ZM69.9999 10.8451C66.9876 10.8451 64.047 11.4206 61.9671 12.6436L22.5205 35.5207C10.8299 43.4342 10.8299 43.4342 10.8299 55.7361V97.2459C10.8299 109.548 10.8299 109.548 22.8074 117.677L61.9671 140.338C66.1987 142.784 73.8729 142.784 78.1044 140.338L117.551 117.461C129.17 109.548 129.17 109.548 129.17 97.2459V55.7361C129.17 43.4342 129.17 43.4342 117.193 35.3049L78.0327 12.6436C75.9528 11.4206 73.0122 10.8451 69.9999 10.8451Z" fill="black"/>
<path d="M70 103C55.096 103 43 90.904 43 76C43 61.096 55.096 49 70 49C84.904 49 97 61.096 97 76C97 90.904 84.904 103 70 103ZM70 59.8C61.072 59.8 53.8 67.072 53.8 76C53.8 84.928 61.072 92.2 70 92.2C78.928 92.2 86.2 84.928 86.2 76C86.2 67.072 78.928 59.8 70 59.8Z" fill="black"/>
</svg>
